/* XPM */
static char *addrow[] = {
/* columns rows colors chars-per-pixel */
"16 16 44 1",
"  c #357654",
". c #387957",
"X c #387A57",
"o c #3B7E5A",
"O c #3C7E5A",
"+ c #40855E",
"@ c #448B62",
"# c #458B62",
"$ c #458B63",
"% c #458C62",
"& c #458C63",
"* c #4A9367",
"= c #4A9368",
"- c #4F9A6C",
"; c #509A6C",
": c #54A170",
"> c #54A171",
", c #55A171",
"< c #55A271",
"1 c #58A775",
"2 c #5CAC79",
"3 c #5DAC79",
"4 c #5FB07B",
"5 c #8DB453",
"6 c #8DB454",
"7 c #96B955",
"8 c #96B956",
"9 c #A0C058",
"0 c #A1C058",
"q c #ADC65A",
"w c #ACC75A",
"e c #ADC75A",
"r c #ACC75B",
"t c #ADC75B",
"y c #C5D560",
"u c #C5D561",
"i c #C6D560",
"p c #C5D660",
"a c #C6D660",
"s c #D0DB63",
"d c #DAE165",
"f c #DAE265",
"g c #E0E566",
"h c None",
/* pixels */
"hhhhhhhhhhhhhhhh",
"hhhhhhhhhhhhhhhh",
"hhhhhh4444hhhhhh",
"hhhhhh4gg4hhhhhh",
"hhhhhh3df3hhhhhh",
"hhhhhh3sf1hhhhhh",
"hh<<<<ssss<><<hh",
"hh;pppupppppp;hh",
"hh=teeeetteee=hh",
"hh###%9099%#%&hh",
"hhhhhh+88+hhhhhh",
"hhhhhhO66ohhhhhh",
"hhhhhh.65.hhhhhh",
"hhhhhh    hhhhhh",
"hhhhhhhhhhhhhhhh",
"hhhhhhhhhhhhhhhh"
};
