/* XPM */
static char *delrow[] = {
/* columns rows colors chars-per-pixel */
"16 16 10 1",
"  c #A50101",
". c #B00101",
"X c #B90202",
"o c #C20404",
"O c #C40505",
"+ c #EC3B3B",
"@ c #EC3F3F",
"# c #F47C7C",
"$ c #F48282",
"% c None",
/* pixels */
"%%%%%%%%%%%%%%%%",
"%%%%%%%%%%%%%%%%",
"%%%%%%%%%%%%%%%%",
"%%%%%%%%%%%%%%%%",
"%%%%%%%%%%%%%%%%",
"%%%%%%%%%%%%%%%%",
"%%Oooooooooooo%%",
"%%X$$##$##$$$X%%",
"%%.@@+++@@+++.%%",
"%%            %%",
"%%%%%%%%%%%%%%%%",
"%%%%%%%%%%%%%%%%",
"%%%%%%%%%%%%%%%%",
"%%%%%%%%%%%%%%%%",
"%%%%%%%%%%%%%%%%",
"%%%%%%%%%%%%%%%%"
};
