/* XPM */
static char * progicon48_xpm[] = {
"48 48 77 1",
" 	c None",
".	c #7BB0BE",
"+	c #2C8196",
"@	c #076A84",
"#	c #0B6D86",
"$	c #237B92",
"%	c #62A1B1",
"&	c #E7F1F3",
"*	c #CDE2E7",
"=	c #5B9CAD",
"-	c #D6E6EB",
";	c #1B768E",
">	c #ABCDD6",
",	c #6FA9B7",
"'	c #9BC3CE",
")	c #35869B",
"!	c #14728A",
"~	c #EDF4F7",
"{	c #C5D1E3",
"]	c #A7B9D3",
"^	c #DCEAEE",
"/	c #8CA4C6",
"(	c #4E72A7",
"_	c #5376AA",
":	c #5297A9",
"<	c #C5DCE2",
"[	c #6BA6B5",
"}	c #92BEC9",
"|	c #6D8AB7",
"1	c #1E4B8F",
"2	c #214D91",
"3	c #BBD7DE",
"4	c #E1E7F0",
"5	c #DFE5EF",
"6	c #E4EDF2",
"7	c #B5D3DA",
"8	c #4791A4",
"9	c #89B9C5",
"0	c #428DA1",
"a	c #4F95A8",
"b	c #84B5C2",
"c	c #79AFBD",
"d	c #73ABBA",
"e	c #A2C7D1",
"f	c #97C1CB",
"g	c #3C8A9E",
"h	c #5599AB",
"i	c #CCD6E6",
"j	c #EAEFF5",
"k	c #ADBDD6",
"l	c #D2DBE9",
"m	c #5E7EAF",
"n	c #003380",
"o	c #91A7C8",
"p	c #728EB9",
"q	c #13428A",
"r	c #456BA3",
"s	c #265293",
"t	c #CDDBE7",
"u	c #345D9A",
"v	c #3D649F",
"w	c #6382B2",
"x	c #2A5595",
"y	c #A2B5D1",
"z	c #9FB2CF",
"A	c #7591BB",
"B	c #4066A0",
"C	c #B5C4DA",
"D	c #5779AC",
"E	c #0B3C86",
"F	c #2E5897",
"G	c #BDCADE",
"H	c #7C97BE",
"I	c #849CC2",
"J	c #073884",
"K	c #93A8CA",
"L	c #7E98BF",
"                                                ",
"                                                ",
"                                                ",
"                       .+@#$%&                  ",
"                     *$=*  -.;>                 ",
"                     $>      *;-                ",
"                    %,        ')                ",
"                    !~{]]]]]]] ;^               ",
"                   -$ /(_(((_( :>               ",
"                   <)          [}               ",
"                    # |1111112 )<               ",
"                    +3&45555556#                ",
"                    7$        89                ",
"                     [)-    &:0                 ",
"                   60 '!ab9=!c %^               ",
"                  6$}  &>.de^  '!7              ",
"                 ^$f            <;b             ",
"            3e-  :'              &g<            ",
"         68#gh$#}                               ",
"        3!9    ^g0                 ij   5kl     ",
"       ~;3  jm   h.               |no  pqrs1t   ",
"       ,,   52   &!^             {uvo  l   wm   ",
"       +*   52    =e             xivo      y1   ",
"       # lzz/qzzz&9[            AA vo      B|   ",
"       # CDD(EDDD59,           is  vo     pF    ",
"       )t   -2    he           BwyysmG   H2j    ",
"       d%   42   6!6           Hmmmqu/  I26     ",
"        $>  52   89                vo  oJzCCC   ",
"        <;,~   <+h                 |k  HBvBBv   ",
"         ~%@$0#;>~e                             ",
"        )<  t76  ~!^                            ",
"       7+         9h                            ",
"       g>          ;*                           ",
"      3$           '0                           ",
"      0>            +^                          ",
"      }                                         ",
"  4(5  |y          I]   KK                      ",
"   Iu Kx           CF   1{                      ",
"    r_ql            1{ ]x                       ",
"    lnA             Im Bo                       ",
"    vrq5            jEiJ~                       ",
"   Lu Hv             _1m                        ",
"  Gq5  vA            Gn{                        ",
"                     yF                         ",
"                   jo1G                         ",
"                   4pC                          ",
"                                                ",
"                                                "};
