/* XPM */
static char * progicon16_xpm[] = {
"16 16 138 2",
"  	c None",
". 	c #00A117",
"+ 	c #00A116",
"@ 	c #006CC5",
"# 	c #005AFF",
"$ 	c #005AFE",
"% 	c #005AFA",
"& 	c #005BF6",
"* 	c #006CBA",
"= 	c #009015",
"- 	c #007E8B",
"; 	c #1668FE",
"> 	c #71A2FC",
", 	c #0A60FE",
"' 	c #77A6FC",
") 	c #085FFF",
"! 	c #4888FD",
"~ 	c #1266FC",
"{ 	c #6EA0F8",
"] 	c #76A5F6",
"^ 	c #2C76F0",
"/ 	c #005BE9",
"( 	c #006B7D",
"_ 	c #A3C2FA",
": 	c #C9DAF9",
"< 	c #82ADFB",
"[ 	c #4686FD",
"} 	c #ADC8FA",
"| 	c #2370FA",
"1 	c #1A6BF6",
"2 	c #4B8AF2",
"3 	c #6299F0",
"4 	c #E1E9F6",
"5 	c #005BE2",
"6 	c #006279",
"7 	c #6298FC",
"8 	c #F6F7F8",
"9 	c #4385FD",
"0 	c #7CA9FC",
"a 	c #C4D7F9",
"b 	c #7CA9F7",
"c 	c #3E82F4",
"d 	c #4687F2",
"e 	c #BFD4F4",
"f 	c #8FB6EF",
"g 	c #F8F8F8",
"h 	c #005BDB",
"i 	c #005F75",
"j 	c #1D6CFE",
"k 	c #D8E4F8",
"l 	c #D4E1F9",
"m 	c #0E63FE",
"n 	c #005AFB",
"o 	c #90B6F7",
"p 	c #005AF2",
"q 	c #005BED",
"r 	c #4B8AEC",
"s 	c #E1EAF6",
"t 	c #A7C4EF",
"u 	c #005CD4",
"v 	c #006071",
"w 	c #005AF9",
"x 	c #005AF4",
"y 	c #005BEF",
"z 	c #005BEA",
"A 	c #005BE5",
"B 	c #005BE0",
"C 	c #005BDC",
"D 	c #005BD7",
"E 	c #005BD2",
"F 	c #005CCE",
"G 	c #005F70",
"H 	c #005AFC",
"I 	c #005AF7",
"J 	c #005AED",
"K 	c #005BE8",
"L 	c #6C9FED",
"M 	c #4A8AE6",
"N 	c #2774DF",
"O 	c #72A3E6",
"P 	c #689DE1",
"Q 	c #0A62CF",
"R 	c #005CCD",
"S 	c #006070",
"T 	c #005AF0",
"U 	c #005AEB",
"V 	c #005BE6",
"W 	c #679CEB",
"X 	c #D6E3F4",
"Y 	c #93B8EA",
"Z 	c #4A8ADE",
"` 	c #5490DC",
" .	c #BAD1ED",
"..	c #7FACE3",
"+.	c #007E89",
"@.	c #679CF8",
"#.	c #CEDDF6",
"$.	c #CEDDF5",
"%.	c #679CEC",
"&.	c #2A76E3",
"*.	c #A3C2ED",
"=.	c #7CAAE7",
"-.	c #93B8E7",
";.	c #035ECE",
">.	c #B3CCEC",
",.	c #5F98DD",
"'.	c #007C86",
").	c #3E82F3",
"!.	c #7CA9F3",
"~.	c #7CAAF0",
"{.	c #7CAAEE",
"].	c #3E82E4",
"^.	c #7CAAE8",
"/.	c #DEE7F4",
"(.	c #E6ECF5",
"_.	c #E9EEF5",
":.	c #0860CE",
"<.	c #AAC6EA",
"[.	c #81ADE3",
"}.	c #007481",
"|.	c #005BDA",
"1.	c #005CD6",
"2.	c #005CD1",
"3.	c #7CAAE2",
"4.	c #93B8E6",
"5.	c #76A6E1",
"6.	c #F0F3F6",
"7.	c #C2D6EE",
"8.	c #73A4E1",
"9.	c #007714",
"0.	c #005EAF",
"a.	c #005CDD",
"b.	c #005BD8",
"c.	c #005BD4",
"d.	c #005CCF",
"e.	c #005D9E",
"f.	c #006313",
"g.	c #006312",
"                                ",
"  . . . . . + + . . . . + . .   ",
"+ @ # # # # # # # # # $ % & * = ",
"- ; > , ' ) # ! # # ~ { ] ^ / ( ",
"- # _ : < # [ } [ | 1 2 3 4 5 6 ",
"- # 7 8 9 # 0 a b c d e f g h i ",
"- j k [ l m n o p q r s t g u v ",
"- # # # $ w x y z A B C D E F G ",
"- # # H I p J K L M N O P Q R S ",
"- $ % x T U V W X Y Z `  ...R G ",
"+.@.#.#.$.%.&.*.=.-.R ;.>.,.R G ",
"'.).!.~.{.].^./.(._.:.<.[.R R S ",
"}.z A B |.1.2.F 3.4.5.6.7.8.R G ",
"9.0.a.b.c.d.R R R R R R R R e.f.",
"  f.f.g.g.f.f.g.g.f.f.g.f.f.g.  ",
"                                "};
