/* XPM */
static char * progicon16_xpm[] = {
"16 16 102 2",
"  	c None",
". 	c #75A1BA",
"+ 	c #326B98",
"@ 	c #316A98",
"# 	c #6F9DB7",
"$ 	c #1E5C8E",
"% 	c #003380",
"& 	c #134289",
"* 	c #1A488C",
"= 	c #1A578C",
"- 	c #1A598C",
"; 	c #5677A8",
"> 	c #839ABE",
", 	c #3F659E",
"' 	c #9AADC9",
") 	c #033581",
"! 	c #4D70A4",
"~ 	c #6885B1",
"{ 	c #A8B8CF",
"] 	c #1E4B8E",
"^ 	c #3C629C",
"/ 	c #93A7C5",
"( 	c #16538A",
"_ 	c #053782",
": 	c #BEC9DA",
"< 	c #E1E5EA",
"[ 	c #385F9A",
"} 	c #98ABC8",
"| 	c #B4C1D5",
"1 	c #BFCADA",
"2 	c #124188",
"3 	c #879EC0",
"4 	c #8098BC",
"5 	c #718CB5",
"6 	c #093A84",
"7 	c #C6CFDD",
"8 	c #DCE1E8",
"9 	c #41669E",
"0 	c #6280AE",
"a 	c #7992B9",
"b 	c #1F4B8E",
"c 	c #DADFE7",
"d 	c #E0E4EA",
"e 	c #17458B",
"f 	c #6180AE",
"g 	c #7993B9",
"h 	c #345C98",
"i 	c #A1B2CC",
"j 	c #073983",
"k 	c #39609B",
"l 	c #4F71A5",
"m 	c #A6B6CE",
"n 	c #D1D8E3",
"o 	c #315A97",
"p 	c #104087",
"q 	c #0A3B84",
"r 	c #063883",
"s 	c #A4B4CD",
"t 	c #8199BD",
"u 	c #728DB6",
"v 	c #C1CBDB",
"w 	c #2B5594",
"x 	c #0C3C85",
"y 	c #0F3F87",
"z 	c #7B94BA",
"A 	c #CDD5E1",
"B 	c #ADBCD2",
"C 	c #16448A",
"D 	c #92A6C5",
"E 	c #AFBDD3",
"F 	c #2C5695",
"G 	c #748FB7",
"H 	c #C4CEDC",
"I 	c #6784B0",
"J 	c #6C88B3",
"K 	c #2D5795",
"L 	c #95A9C6",
"M 	c #ACBBD1",
"N 	c #D6DCE5",
"O 	c #325A97",
"P 	c #3D639D",
"Q 	c #15448A",
"R 	c #5475A8",
"S 	c #9EB0CA",
"T 	c #214D8F",
"U 	c #A9B8D0",
"V 	c #E6E9ED",
"W 	c #A7B7CF",
"X 	c #17538B",
"Y 	c #4B84A5",
"Z 	c #0E4986",
"` 	c #0C4885",
" .	c #265B92",
"..	c #356699",
"+.	c #38689B",
"@.	c #4573A1",
"#.	c #3A6A9B",
"$.	c #4580A2",
"%.	c #E2EDF0",
"&.	c #DFEBEF",
"*.	c #E1EDF0",
"=.	c #FEFEFE",
"                                ",
". + @ @ @ @ @ @ @ @ @ @ @ @ + # ",
"$ % % % % % % & * % % % % % % = ",
"- ; > , ' ) % ! ~ % ) { ] ^ / ( ",
"- _ : < [ % } | 1 } 2 3 4 } 5 ( ",
"- 6 7 8 9 % ] 0 a ] ) b c d e ( ",
"- f g h i j % k l % % % m m % ( ",
"- % % % % % % % % % % l n o % ( ",
"- % % % % % % % % % % p q % % ( ",
"- % % % % % % r s t % u v i w ( ",
"- x y y y _ % z A B % 9 C s i ( ",
"- D E E E ^ F E G B % % q H I ( ",
"- J t t t K L M 1 N k 2 : t % ( ",
"- O P P P Q h R S H T U V W 3 X ",
"Y Z ` ` ` ` ` `  ...` +.@.@.#.$.",
"  %.&.&.&.&.&.&.&.&.&.&.&.&.*.=."};
