/* XPM */
static char * progicon32_xpm[] = {
"32 32 165 2",
"  	c None",
". 	c #F4F8F9",
"+ 	c #8AB6C4",
"@ 	c #337E99",
"# 	c #317C98",
"$ 	c #7EAEBE",
"% 	c #EFF5F7",
"& 	c #5E99AE",
"* 	c #054882",
"= 	c #003380",
"- 	c #034381",
"; 	c #488CA3",
"> 	c #217190",
", 	c #206C8F",
"' 	c #1E6C8E",
") 	c #5173A6",
"! 	c #6885B1",
"~ 	c #1B658D",
"{ 	c #275292",
"] 	c #728DB6",
"^ 	c #708BB5",
"/ 	c #0A3B84",
"( 	c #204C8F",
"_ 	c #718CB5",
": 	c #0D3D86",
"< 	c #A1B2CC",
"[ 	c #D2D9E3",
"} 	c #104087",
"| 	c #0E3E86",
"1 	c #335B98",
"2 	c #5D7CAC",
"3 	c #043682",
"4 	c #BAC6D8",
"5 	c #F2F2F2",
"6 	c #92A6C5",
"7 	c #053782",
"8 	c #C2CCDC",
"9 	c #849BBE",
"0 	c #C6CFDD",
"a 	c #6986B1",
"b 	c #ACBBD1",
"c 	c #7F97BC",
"d 	c #1A488C",
"e 	c #DEE2E9",
"f 	c #B5C2D5",
"g 	c #B8C4D7",
"h 	c #3D639D",
"i 	c #DADFE7",
"j 	c #0C3C85",
"k 	c #5C7CAB",
"l 	c #CCD4E0",
"m 	c #134289",
"n 	c #EEEFF0",
"o 	c #F1F1F2",
"p 	c #41669E",
"q 	c #18468B",
"r 	c #023581",
"s 	c #325A97",
"t 	c #073983",
"u 	c #DDE1E8",
"v 	c #3E649D",
"w 	c #6482AF",
"x 	c #B1BFD3",
"y 	c #5677A8",
"z 	c #E9EBEE",
"A 	c #2C5695",
"B 	c #355D99",
"C 	c #B3C0D4",
"D 	c #D8DDE6",
"E 	c #7993B9",
"F 	c #B9C5D7",
"G 	c #285393",
"H 	c #E8EAEE",
"I 	c #EFF0F1",
"J 	c #9BADC9",
"K 	c #CED6E1",
"L 	c #15448A",
"M 	c #EBECEF",
"N 	c #CBD3E0",
"O 	c #7B94BA",
"P 	c #013480",
"Q 	c #AEBCD2",
"R 	c #9FB0CB",
"S 	c #96A9C7",
"T 	c #829ABD",
"U 	c #375E9A",
"V 	c #7992B9",
"W 	c #033581",
"X 	c #1B488D",
"Y 	c #305996",
"Z 	c #234F90",
"` 	c #385F9A",
" .	c #889EC0",
"..	c #9EB0CB",
"+.	c #CFD6E2",
"@.	c #144389",
"#.	c #3F659E",
"$.	c #114088",
"%.	c #5475A8",
"&.	c #879EC0",
"*.	c #90A5C4",
"=.	c #5F7EAD",
"-.	c #083984",
";.	c #16448A",
">.	c #E0E4EA",
",.	c #6784B0",
"'.	c #093A84",
").	c #A3B4CD",
"!.	c #6D89B3",
"~.	c #93A7C5",
"{.	c #5878A9",
"].	c #1E4B8E",
"^.	c #748FB7",
"/.	c #E6E9ED",
"(.	c #19478C",
"_.	c #6E8AB4",
":.	c #ADBCD2",
"<.	c #A8B8CF",
"[.	c #C3CDDC",
"}.	c #43689F",
"|.	c #315A97",
"1.	c #4F71A5",
"2.	c #9EB0CA",
"3.	c #EDEEF0",
"4.	c #2D5795",
"5.	c #0F3F87",
"6.	c #2E5796",
"7.	c #8199BD",
"8.	c #255091",
"9.	c #3C629C",
"0.	c #E4E7EC",
"a.	c #8AA0C1",
"b.	c #466AA1",
"c.	c #CAD2DF",
"d.	c #4E71A5",
"e.	c #7C95BA",
"f.	c #5B7BAB",
"g.	c #5979AA",
"h.	c #A7B7CF",
"i.	c #C7D0DE",
"j.	c #8BA1C2",
"k.	c #4D70A4",
"l.	c #F0F0F1",
"m.	c #BEC9DA",
"n.	c #6381AF",
"o.	c #3A619B",
"p.	c #1D6C8E",
"q.	c #8FA4C3",
"r.	c #1C668D",
"s.	c #003580",
"t.	c #738EB6",
"u.	c #476BA1",
"v.	c #2A7794",
"w.	c #B8D3DB",
"x.	c #247391",
"y.	c #125988",
"z.	c #0D5486",
"A.	c #105787",
"B.	c #227190",
"C.	c #A3C5D1",
"D.	c #FDFDFE",
"E.	c #C7DDE3",
"F.	c #BFD8DF",
"G.	c #C4DBE1",
"H.	c #FAFCFC",
"                                                                ",
"                                                                ",
". + @ # # # # # # # # # # # # # # # # # # # # # # # # # # # $ % ",
"& * = = = = = = = = = = = = = = = = = = = = = = = = = = = = - ; ",
"> = = = = = = = = = = = = = = = = = = = = = = = = = = = = = = , ",
"' = = = = = = = = = = = = = = ) ! = = = = = = = = = = = = = = ~ ",
"' = { ] ^ / = ( ] _ : = = = = < [ = = = = } ] ] | = = 1 ] 2 = ~ ",
"' = 3 4 5 6 7 8 5 9 = = = = = < [ = = = = = 0 5 a = = b 5 c = ~ ",
"' = = d e 5 f 5 g 3 = = h h h f i h h h j = k 5 l = m n o ( = ~ ",
"' = = = p o 5 e q = = r 5 5 5 5 5 5 5 5 s = t u 5 v w 5 x = = ~ ",
"' = = = y 5 5 z A = = = B B B C D B B B / = = E 5 < F 5 ) = = ~ ",
"' = = G H I J 5 K j = = = = = < [ = = = = = = L M n o u 7 = = ~ ",
"' = / N 5 O P Q 5 R = = = = = < [ = = = = = = = S 5 5 T = = = ~ ",
"' = U V ] W = L E V X = = = = ) ! = = = = = = = Y 5 o Z = = = ~ ",
"' = = = = = = = = = = = = = = = = = = = = = 3 `  .5 ..= = = = ~ ",
"' = = = = = = = = = = = = = = = = = = = = = L 5 5 +.@.= = = = ~ ",
"' = = = = = = = = = = = = = = = = = = = = = 7 h { = = = = = = ~ ",
"' = = = = = = = = = = = = = = = = = = = = = = = = = = = = = = ~ ",
"' = = = = = = = = = = = = = = = #.V V 1 = = $.%.&...*.=.-.= = ~ ",
"' = = = = = = = = = = = = = = ;.>.5 5 ,.= = ] 5 5 5 5 5 0 '.= ~ ",
"' = = = = = = = = = = = = = = ).M n 5 ,.= = !.~.h A J 5 5 {.= ~ ",
"' = L ].].].].].].].L = = = ) 5 ^./.5 ,.= = r = = = (.5 5 _.= ~ ",
"' = :.5 5 5 5 5 5 5 <.= = m e [.3 /.5 ,.= = = = = = }.5 5 |.= ~ ",
"' = ) ] ] ] ] ] ] ] 1.= = 2.3.4.= /.5 ,.= = = = = A e 5 O = = ~ ",
"' = / 5.5.5.5.5.5.5./ = B 5 ..6.6.z 5 7.8.= = = 9.0.5 a.= = = ~ ",
"' = :.5 5 5 5 5 5 5 <.= b.5 5 5 5 5 5 5 c.= = d.M 5 e.= = = = ~ ",
"' = f.7.7.7.7.7.7.7.g.= Y h.h.h.h.n 5 i.j.= k.l.5 m.n.n.n.o.= ~ ",
"p.= = = = = = = = = = = = = = = = /.5 ,.= = V 5 5 5 5 5 5 q.= r.",
"@ s.= = = = = = = = = = = = = = = t.V 1 = = h V V V V V V u.= v.",
"w.x.y.z.z.z.z.z.z.z.z.z.z.z.z.z.z.z.z.z.z.z.z.z.z.z.z.z.z.A.B.C.",
"  D.E.F.F.F.F.F.F.F.F.F.F.F.F.F.F.F.F.F.F.F.F.F.F.F.F.F.F.G.H.  ",
"                                                                "};
