/* XPM */
static char * progicon32_xpm[] = {
"32 32 231 2",
"  	c None",
". 	c #00A117",
"+ 	c #00A116",
"@ 	c #005AFF",
"# 	c #005AFD",
"$ 	c #005AFA",
"% 	c #005BF9",
"& 	c #005BF6",
"* 	c #005BF4",
"= 	c #009F16",
"- 	c #009916",
"; 	c #005AFE",
"> 	c #005AFC",
", 	c #005BFA",
"' 	c #005AF7",
") 	c #005AF3",
"! 	c #005BF0",
"~ 	c #005AED",
"{ 	c #008F15",
"] 	c #008915",
"^ 	c #005BFD",
"/ 	c #005AFB",
"( 	c #005AF8",
"_ 	c #005AF4",
": 	c #005BF2",
"< 	c #005AEF",
"[ 	c #005AEC",
"} 	c #005BEA",
"| 	c #005AE7",
"1 	c #008015",
"2 	c #5892FC",
"3 	c #F8F8F8",
"4 	c #CBDBF9",
"5 	c #045DFE",
"6 	c #2370FD",
"7 	c #EFF2F8",
"8 	c #ECF0F8",
"9 	c #226FFE",
"0 	c #2A75FD",
"a 	c #F5F6F8",
"b 	c #005BFC",
"c 	c #4686F9",
"d 	c #CEDDF7",
"e 	c #ECF0F7",
"f 	c #F5F6F7",
"g 	c #E2EAF7",
"h 	c #9DBEF3",
"i 	c #1367EC",
"j 	c #005BE9",
"k 	c #005BE6",
"l 	c #005BE4",
"m 	c #007614",
"n 	c #A5C3FA",
"o 	c #79A7FB",
"p 	c #BBD1F9",
"q 	c #6298FC",
"r 	c #005AF9",
"s 	c #6499F6",
"t 	c #B4CDF6",
"u 	c #79A7F4",
"v 	c #78A7F3",
"w 	c #D4E1F6",
"x 	c #A8C5F2",
"y 	c #005AE5",
"z 	c #005BE2",
"A 	c #005BE0",
"B 	c #006D13",
"C 	c #1165FE",
"D 	c #DEE7F8",
"E 	c #F7F7F8",
"F 	c #AFC9FA",
"G 	c #8CB3FB",
"H 	c #9EBEFA",
"I 	c #8CB3FA",
"J 	c #8CB3F8",
"K 	c #005AF5",
"L 	c #065EF3",
"M 	c #005AF1",
"N 	c #005BEE",
"O 	c #005BEC",
"P 	c #3D81EC",
"Q 	c #EBEFF6",
"R 	c #005BDD",
"S 	c #006313",
"T 	c #7DA9FB",
"U 	c #3F82FD",
"V 	c #005AF2",
"W 	c #3A7FF1",
"X 	c #BAD0F5",
"Y 	c #EAEFF7",
"Z 	c #F7F7F7",
"` 	c #005BDE",
" .	c #005BDC",
"..	c #005CD9",
"+.	c #206EFE",
"@.	c #EBEFF8",
"#.	c #F0F3F8",
"$.	c #C9DAF9",
"%.	c #2A75FC",
"&.	c #005BF8",
"*.	c #DFE8F6",
"=.	c #6198ED",
"-.	c #065FE5",
";.	c #4889E8",
">.	c #005BDB",
",.	c #005BD8",
"'.	c #005BD6",
").	c #015BFE",
"!.	c #BDD2F9",
"~.	c #6097FC",
"{.	c #A4C2FA",
"].	c #82ADFB",
"^.	c #2A75F8",
"/.	c #005AF0",
"(.	c #005BED",
"_.	c #005AEA",
":.	c #E4EBF6",
"<.	c #C4D7F3",
"[.	c #96BAEE",
"}.	c #DFE8F5",
"|.	c #005CD4",
"1.	c #005CD2",
"2.	c #006312",
"3.	c #73A3FB",
"4.	c #B4CDF9",
"5.	c #1366FE",
"6.	c #E2EAF8",
"7.	c #387DFD",
"8.	c #2A75F6",
"9.	c #005BEF",
"0.	c #005BE7",
"a.	c #4889EA",
"b.	c #D5E2F4",
"c.	c #F4F5F7",
"d.	c #C8D9F3",
"e.	c #5F97E6",
"f.	c #005BD1",
"g.	c #005CCE",
"h.	c #005BEB",
"i.	c #005BE8",
"j.	c #005BE3",
"k.	c #005BE1",
"l.	c #005CDA",
"m.	c #005BD5",
"n.	c #005BD3",
"o.	c #005CD0",
"p.	c #005CCD",
"q.	c #005BE5",
"r.	c #005BD7",
"s.	c #005BD4",
"t.	c #005CCF",
"u.	c #005BCD",
"v.	c #005AEE",
"w.	c #005BDF",
"x.	c #005CDD",
"y.	c #005BDA",
"z.	c #005BD2",
"A.	c #005BD0",
"B.	c #005BF1",
"C.	c #015CE5",
"D.	c #B8CFF2",
"E.	c #2E78E1",
"F.	c #005BD9",
"G.	c #9BBDEB",
"H.	c #D4E1F2",
"I.	c #F2F4F7",
"J.	c #EDF1F6",
"K.	c #B4CDEC",
"L.	c #2875D4",
"M.	c #75A5EC",
"N.	c #2E78DE",
"O.	c #BCD2EE",
"P.	c #93B8E7",
"Q.	c #D8E4F2",
"R.	c #DCE6F3",
"S.	c #035ECD",
"T.	c #337BE5",
"U.	c #F3F4F7",
"V.	c #76A6E8",
"W.	c #2E78DB",
"X.	c #327BD7",
"Y.	c #1F6FD2",
"Z.	c #2674D3",
"`.	c #DAE5F8",
" +	c #DAE5F7",
".+	c #DAE5F6",
"++	c #0B62E0",
"@+	c #B8CFF0",
"#+	c #015CD8",
"$+	c #2E78D8",
"%+	c #1F6ED2",
"&+	c #F2F4F6",
"*+	c #0E65CF",
"=+	c #005BF7",
"-+	c #005AEB",
";+	c #005AE8",
">+	c #9CBEED",
",+	c #E5ECF5",
"'+	c #1A6BDA",
")+	c #005CD5",
"!+	c #2E78D5",
"~+	c #0C63CF",
"{+	c #BDD3ED",
"]+	c #7DAAE2",
"^+	c #D7E3F3",
"/+	c #AFCAED",
"(+	c #AFC9EC",
"_+	c #BCD2ED",
":+	c #1468D0",
"<+	c #C6D8EF",
"[+	c #8FB6E5",
"}+	c #009C17",
"|+	c #DAE5F5",
"1+	c #1E6ED2",
"2+	c #D4E1F1",
"3+	c #7EABE2",
"4+	c #009216",
"5+	c #005BCF",
"6+	c #2E79D5",
"7+	c #DEE7F3",
"8+	c #D9E5F2",
"9+	c #8CB3E5",
"0+	c #1A6BD1",
"a+	c #008815",
"b+	c #005AE4",
"c+	c #005CD3",
"d+	c #007E14",
"e+	c #007914",
"f+	c #005CD1",
"g+	c #006F14",
"h+	c #006913",
"                                                                ",
"                                                                ",
"                                                                ",
"    . . . . . . . . . . . + . + . . . . . . . . . + . . . .     ",
"  + . @ @ @ @ @ @ @ @ @ @ @ @ @ @ @ @ @ @ @ @ @ # $ % & * = -   ",
"+ + @ @ @ @ @ @ @ @ @ @ @ @ @ @ @ @ @ @ @ @ ; > , ' * ) ! ~ { ] ",
". @ @ @ @ @ @ @ @ @ @ @ @ @ @ @ @ @ @ @ @ ^ / ( & _ : < [ } | 1 ",
"+ @ @ 2 3 4 5 6 7 8 9 @ @ @ 0 a @ @ @ @ b c d e f g h i j k l m ",
". @ @ @ n 3 o p 3 q @ @ @ @ 0 a @ @ # / r s t u v w 3 x y z A B ",
". @ @ @ C D E 3 F @ @ @ G G H E G I J ( K L M N O P 3 Q z A R S ",
". @ @ @ @ T 3 3 U @ @ @ 3 3 3 3 3 3 3 * V W X Y Z 3 3 3 `  ...S ",
". @ @ @ +.@.#.3 $.5 @ @ @ @ %.a &.K ) M < *.3 =.-.;.3 3 >.,.'.S ",
". @ @ ).!.3 ~.{.3 ].@ @ @ > ^.f K V /.(._.:.3 <.[.}.3 3 ,.|.1.2.",
". @ @ 3.3 4.@ 5.6.a 7.; $ ( 8.f M 9.O } 0.a.b.c.d.e.3 3 |.f.g.S ",
". @ @ @ @ @ @ @ @ @ > $ ' K : < ~ h.i.k j.k.` R l.,.m.n.o.p.p.2.",
"+ @ @ @ @ @ @ @ # / ( & ) M 9.(.} 0.q.z A ` >...r.s.f.t.p.p.u.S ",
". @ @ @ @ @ @ > r ' K : /.v.h.j | l k.w.x.y.,.m.z.A.g.p.p.u.p.2.",
". @ @ @ @ ; / % ' * B.< [ } | C.D.3 3 E.F.G.H.I.J.K.L.p.u.p.p.S ",
". @ @ @ # / ( K ) /.v.[ j 0.l M.c.3 3 N.'.3 O.P.Q.3 R.S.p.p.u.2.",
". @ ; 3 3 3 3 3 3 3 3 i.k j.T.U.V.3 3 W.1.X.p.p.Y.3 3 Z.p.p.u.2.",
". # / `. + + +.+.+.+.+l z ++b.@+#+3 3 $+g.p.u.p.%+3 &+*+p.p.p.S ",
". r =+_ V ! v.-+;+q.l k.` >+,+'+)+3 3 !+p.p.p.~+{+3 ]+p.p.p.u.2.",
". & * 3 3 3 3 3 3 3 3 R >.3 ^+/+(+3 3 _+p.u.:+<+3 [+p.u.p.p.p.S ",
"}+V 9. + + +.+.+.+|+|+y.r.3 3 3 3 3 3 3 p.1+2+3 3+u.p.p.p.u.p.S ",
"4+9.O } i.q.j.A ` >...'.|.1.5+u.u.3 3 6+p.7+3 8+9+9+9+0+u.p.p.S ",
"a+h.j 0.b+z w.R y.r.m.c+o.g.p.p.p.3 3 6+u.3 3 3 3 3 3 6+u.p.u.S ",
"d+e+q.j.A ` >.F.r.|.f+5+p.p.u.p.p.p.p.p.u.p.p.p.u.p.u.p.u.u.S 2.",
"  g+h+A x.l.,.m.n.f.g.p.p.p.p.u.p.p.u.u.u.p.p.p.u.p.p.p.p.2.S   ",
"    S S S S S 2.S 2.S S S S 2.2.S 2.S S S S S 2.S S S S 2.S     ",
"                                                                ",
"                                                                ",
"                                                                "};
